<svg id="Capa_1" enable-background="new 0 0 512 512" height="512" viewBox="0 0 512 512" width="512" xmlns="http://www.w3.org/2000/svg" xmlns:xlink="http://www.w3.org/1999/xlink"><linearGradient id="SVGID_1_" gradientUnits="userSpaceOnUse" x1="256" x2="256" y1="512" y2="0"><stop offset="0" stop-color="#fd3a84"/><stop offset="1" stop-color="#ffa68d"/></linearGradient><g><g><g><path d="m490.496 387.993c-1.084-5.425-5.067-9.812-10.362-11.415-5.294-1.603-11.042-.162-14.953 3.75l-10.606 10.606-134.934-134.934 134.934-134.934 10.606 10.606c3.912 3.912 9.658 5.353 14.953 3.75s9.277-5.99 10.362-11.415l21.213-106.066c.984-4.918-.556-10.002-4.102-13.548-3.546-3.547-8.631-5.086-13.548-4.102l-106.066 21.213c-5.424 1.085-9.812 5.067-11.415 10.362s-.162 11.042 3.75 14.953l10.606 10.606-134.934 134.935-134.934-134.934 10.606-10.606c3.912-3.912 5.353-9.659 3.75-14.953s-5.99-9.277-11.415-10.362l-106.065-21.214c-4.916-.982-10.001.556-13.548 4.103-3.546 3.546-5.086 8.63-4.102 13.548l21.213 106.066c1.084 5.424 5.067 9.812 10.362 11.415s11.042.162 14.953-3.75l10.606-10.606 134.934 134.933-134.934 134.934-10.606-10.606c-3.912-3.911-9.659-5.352-14.953-3.75-5.295 1.603-9.277 5.99-10.362 11.415l-21.213 106.066c-.984 4.918.556 10.002 4.102 13.548s8.63 5.084 13.548 4.102l106.065-21.213c5.424-1.085 9.812-5.067 11.415-10.362s.162-11.042-3.75-14.953l-10.606-10.606 134.934-134.934 134.934 134.934-10.606 10.606c-3.912 3.912-5.353 9.659-3.75 14.953s5.99 9.277 11.415 10.362l106.065 21.213c.979.196 1.963.291 2.942.291 3.938 0 7.766-1.553 10.606-4.394 3.546-3.546 5.086-8.63 4.102-13.548zm-69.136 78.582 1.395-1.394c5.857-5.858 5.857-15.355 0-21.213l-156.148-156.147c-5.857-5.858-15.355-5.858-21.213 0l-156.147 156.147c-5.858 5.858-5.858 15.355 0 21.213l1.395 1.394-56.52 11.304 11.304-56.519 1.395 1.394c5.857 5.857 15.359 5.854 21.213 0l156.147-156.147c5.858-5.858 5.858-15.355 0-21.213l-156.149-156.147c-5.857-5.858-15.355-5.858-21.213 0l-1.395 1.394-11.303-56.52 56.519 11.304-1.394 1.394c-5.857 5.858-5.857 15.355 0 21.213l156.147 156.147c5.857 5.857 15.359 5.854 21.213 0l156.148-156.147c5.858-5.858 5.858-15.355 0-21.213l-1.394-1.394 56.519-11.304-11.304 56.519-1.395-1.394c-5.857-5.858-15.355-5.858-21.213 0l-156.146 156.148c-5.858 5.858-5.858 15.355 0 21.213l156.147 156.147c2.813 2.813 6.628 4.393 10.606 4.393 3.979 0 7.793-1.58 10.606-4.393l1.395-1.394 11.304 56.519z" fill="url(#SVGID_1_)"/></g></g></g></svg>